<?xml version="1.0" encoding="UTF-8" standalone="no" ?>
<svg xmlns="http://www.w3.org/2000/svg" xmlns:xlink="http://www.w3.org/1999/xlink" viewBox="0 0 300 100">
  <defs>
    <linearGradient id="swayGradient" gradientUnits="userSpaceOnUse" x1="0%" y1="0%" x2="0%" y2="100%">
      <stop offset="0%" style="stop-color:#F50000;stop-opacity:1" />
      <stop offset="100%" style="stop-color:#AC00FF;stop-opacity:1" />
    </linearGradient>
  </defs>
  
  <!-- Sway Text with the user's gradient -->
  <g transform="translate(20, 60) scale(0.24)">
    <path style="stroke:#612078; stroke-width:3; fill:url(#swayGradient);" 
          d="M 97.02 -125.4 C 86.46 -121.22 92.84 -104.72 103.62 -109.12 C 114.84 -113.52 124.3 -121 127.6 -133.1 C 133.98 -157.52 110.22 -168.3 91.74 -168.3 C 68.86 -168.3 40.92 -161.48 32.78 -130.02 C 25.96 -104.06 48.84 -85.58 68.86 -77 C 94.16 -65.12 96.8 -53.68 95.26 -46.42 C 91.96 -34.76 80.96 -18.04 57.86 -18.04 C 32.56 -18.04 14.52 -34.1 31.02 -50.82 C 38.72 -58.96 26.4 -71.5 18.26 -63.14 C -17.16 -26.62 22.44 8.36 57.86 8.36 C 89.32 8.36 117.92 -13.64 124.96 -38.28 C 133.32 -74.58 100.1 -86.68 77.66 -97.24 C 59.4 -104.94 51.92 -115.94 54.34 -124.74 C 57.2 -135.96 74.14 -146.3 91.74 -146.3 C 107.14 -146.3 111.98 -143 110.44 -137.5 C 109.34 -132.88 105.6 -128.92 97.02 -125.4 Z M 95.26 -45.98 C 95.26 -46.2 95.26 -46.42 95.26 -46.42 Z M 289.74 -99 C 293.92 -115.72 268.18 -122.1 264.22 -105.6 C 259.82 -88 257.62 -69.96 253.22 -52.36 L 252.78 -50.82 C 248.82 -34.54 236.06 -25.08 224.62 -25.08 C 216.26 -25.08 210.54 -31.02 216.04 -47.74 C 220.66 -62.48 224.62 -77.44 227.26 -86.46 C 232.32 -102.74 207.24 -110.88 202.18 -94.38 C 199.1 -84.48 195.14 -69.08 190.96 -56.1 C 190.3 -53.9 189.64 -51.7 189.2 -49.28 C 184.8 -33.88 172.48 -25.08 161.48 -25.08 C 153.12 -25.08 147.4 -31.02 152.9 -47.74 C 157.52 -62.48 164.34 -86.9 166.98 -95.92 C 172.04 -112.2 146.96 -120.34 141.9 -103.84 C 138.82 -93.94 132 -69.08 127.82 -56.1 C 120.12 -31.9 127.6 1.32 161.48 1.32 C 177.1 1.32 187.22 -5.94 193.82 -15.18 C 199.54 -5.5 209.44 1.32 224.62 1.32 C 239.14 1.32 248.82 -4.84 255.42 -13.2 C 260.26 -4.18 269.06 1.32 281.6 1.32 C 298.76 1.32 312.4 -15.84 321.42 -39.38 C 325.6 -49.94 309.32 -56.32 305.14 -45.54 C 295.68 -21.56 284.68 -20.68 281.6 -20.68 C 276.1 -20.68 268.84 -21.34 274.56 -45.76 C 278.96 -63.8 285.34 -81.18 289.74 -99 Z M 394.24 -97.02 C 396.88 -108.9 381.48 -114.4 375.1 -106.7 C 370.92 -110.66 365.2 -113.08 357.06 -113.08 C 329.56 -113.08 309.76 -90.2 301.4 -63.58 C 293.48 -35.86 296.56 1.32 332.86 1.32 C 347.38 1.32 357.06 -4.84 363.88 -13.2 C 368.5 -4.18 377.3 1.32 389.84 1.32 C 407 1.32 420.64 -15.84 429.66 -39.38 C 433.84 -49.94 417.56 -56.32 413.38 -45.54 C 403.92 -21.56 392.92 -20.68 389.84 -20.68 C 384.34 -20.68 377.08 -21.56 382.8 -45.98 C 386.54 -62.92 390.28 -79.86 394.24 -97.02 Z M 326.92 -56.1 C 333.52 -77.44 342.76 -91.08 357.06 -91.08 C 360.36 -91.08 368.72 -85.36 366.3 -73.26 L 366.08 -72.6 C 364.76 -66 363.22 -59.18 361.68 -52.58 L 361.02 -50.82 C 357.06 -34.54 344.3 -25.08 332.86 -25.08 C 326.92 -25.08 320.76 -34.98 326.92 -56.1 Z M 507.54 -92.4 C 511.72 -108.68 486.42 -116.38 482.02 -99.44 C 477.84 -83.82 473.88 -68.2 469.92 -52.58 L 469.26 -50.82 C 465.3 -34.54 452.54 -25.08 441.1 -25.08 C 432.74 -25.08 427.02 -31.02 432.52 -47.74 C 437.14 -62.48 443.96 -86.9 446.6 -95.92 C 451.66 -112.2 426.58 -120.34 421.52 -103.84 C 418.44 -93.94 411.62 -69.08 407.44 -56.1 C 399.74 -31.9 407.22 1.32 441.1 1.32 L 442.2 1.32 C 437.14 2.64 432.3 3.52 427.9 4.18 C 406.56 7.04 380.6 12.98 378.18 32.56 C 376.2 50.38 393.14 60.28 411.84 60.28 C 443.3 60.28 463.54 36.52 476.3 11 C 495.88 0.66 514.58 -15.4 524.7 -38.94 C 529.1 -49.5 513.04 -56.32 508.42 -45.98 C 504.02 -35.64 496.98 -27.28 488.62 -20.68 C 491.92 -30.8 493.9 -39.6 495.22 -44.88 C 499.4 -60.72 503.36 -76.56 507.54 -92.4 Z M 400.18 35.2 C 400.18 34.98 406.34 29.26 430.54 26.18 L 438.24 24.86 C 430.98 33 422.18 38.28 411.84 38.28 C 397.98 38.28 400.18 35.42 400.18 35.2 Z" />
  </g>
</svg>