<?xml version="1.0" encoding="UTF-8"?>
<svg xmlns="http://www.w3.org/2000/svg" viewBox="0 0 80 80">
  <defs>
    <linearGradient id="swayGradient" x1="40" y1="4" x2="40" y2="76" gradientUnits="userSpaceOnUse">
      <stop offset="0%" stop-color="#F50000"/>
      <stop offset="100%" stop-color="#AC00FF"/>
    </linearGradient>
  </defs>
  
  <!-- Background circle -->
  <circle cx="40" cy="40" r="36" fill="#f9f2ff" stroke="#612078" stroke-width="2"/>
  
  <!-- Feed elements -->
  <g>
    <!-- Feed item 1 -->
    <rect x="20" y="20" width="40" height="10" rx="5" fill="url(#swayGradient)" opacity="0.9"/>
    <circle cx="25" cy="25" r="2.5" fill="white"/>
    <rect x="30" y="23" width="25" height="2" rx="1" fill="white" opacity="0.8"/>
    <rect x="30" y="27" width="15" height="1.5" rx="0.75" fill="white" opacity="0.6"/>
    
    <!-- Feed item 2 -->
    <rect x="20" y="35" width="40" height="10" rx="5" fill="url(#swayGradient)" opacity="0.75"/>
    <circle cx="25" cy="40" r="2.5" fill="white"/>
    <rect x="30" y="38" width="25" height="2" rx="1" fill="white" opacity="0.8"/>
    <rect x="30" y="42" width="15" height="1.5" rx="0.75" fill="white" opacity="0.6"/>
    
    <!-- Feed item 3 -->
    <rect x="20" y="50" width="40" height="10" rx="5" fill="url(#swayGradient)" opacity="0.6"/>
    <circle cx="25" cy="55" r="2.5" fill="white"/>
    <rect x="30" y="53" width="25" height="2" rx="1" fill="white" opacity="0.8"/>
    <rect x="30" y="57" width="15" height="1.5" rx="0.75" fill="white" opacity="0.6"/>
  </g>
</svg>